<svg xmlns="http://www.w3.org/2000/svg" viewBox="0 0 512 512">
  <defs>
    <radialGradient id="bg" cx="50%" cy="50%" r="60%">
      <stop offset="0%" stop-color="#0d2a3e"/>
      <stop offset="100%" stop-color="#060d1a"/>
    </radialGradient>
    <radialGradient id="heart" cx="35%" cy="35%" r="70%">
      <stop offset="0%" stop-color="#5cffd9"/>
      <stop offset="60%" stop-color="#00e5b8"/>
      <stop offset="100%" stop-color="#007755"/>
    </radialGradient>
    <filter id="glow" x="-50%" y="-50%" width="200%" height="200%">
      <feGaussianBlur stdDeviation="14" result="b"/>
      <feMerge><feMergeNode in="b"/><feMergeNode in="SourceGraphic"/></feMerge>
    </filter>
  </defs>
  <rect width="512" height="512" rx="112" fill="url(#bg)"/>
  <path filter="url(#glow)" fill="url(#heart)"
    d="M256 396c-92-60-156-122-156-204 0-46 36-82 82-82 30 0 56 16 74 42 18-26 44-42 74-42 46 0 82 36 82 82 0 82-64 144-156 204z"/>
  <path stroke="#00e5b8" stroke-width="6" stroke-linecap="round" stroke-linejoin="round" fill="none" opacity="0.85"
    d="M86 256 L150 256 L172 220 L196 292 L222 200 L248 296 L272 256 L426 256"/>
</svg>
